<?xml version="1.0" encoding="UTF-8" standalone="no"?>
<!-- Generator: Adobe Illustrator 16.0.0, SVG Export Plug-In . SVG Version: 6.00 Build 0)  -->

<svg
   xmlns:dc="http://purl.org/dc/elements/1.1/"
   xmlns:cc="http://creativecommons.org/ns#"
   xmlns:rdf="http://www.w3.org/1999/02/22-rdf-syntax-ns#"
   xmlns:svg="http://www.w3.org/2000/svg"
   xmlns="http://www.w3.org/2000/svg"
   xmlns:sodipodi="http://sodipodi.sourceforge.net/DTD/sodipodi-0.dtd"
   xmlns:inkscape="http://www.inkscape.org/namespaces/inkscape"
   version="1.1"
   id="Capa_1"
   x="0px"
   y="0px"
   width="42.168px"
   height="42.168px"
   viewBox="0 0 42.168 42.168"
   style="enable-background:new 0 0 42.168 42.168;"
   xml:space="preserve"
   sodipodi:docname="delete.svg"
   inkscape:version="0.92.5 (2060ec1f9f, 2020-04-08)"><metadata
   id="metadata55"><rdf:RDF><cc:Work
       rdf:about=""><dc:format>image/svg+xml</dc:format><dc:type
         rdf:resource="http://purl.org/dc/dcmitype/StillImage" /><dc:title></dc:title></cc:Work></rdf:RDF></metadata><defs
   id="defs53" /><sodipodi:namedview
   pagecolor="#ffffff"
   bordercolor="#666666"
   borderopacity="1"
   objecttolerance="10"
   gridtolerance="10"
   guidetolerance="10"
   inkscape:pageopacity="0"
   inkscape:pageshadow="2"
   inkscape:window-width="1366"
   inkscape:window-height="699"
   id="namedview51"
   showgrid="false"
   inkscape:zoom="5.5966611"
   inkscape:cx="-1.2507457"
   inkscape:cy="28.399286"
   inkscape:window-x="0"
   inkscape:window-y="0"
   inkscape:window-maximized="1"
   inkscape:current-layer="Capa_1" />
<g
   id="g18">
	<g
   id="g16">
		<path
   d="M36.25,5.872c0-1.654-1.347-3-3-3h-6.169C27.015,1.277,25.694,0,24.084,0h-6c-1.611,0-2.93,1.277-2.997,2.872H8.918    c-1.654,0-3,1.346-3,3V7c0,1.654,1.346,3,3,3h24.333c1.654,0,3-1.346,3-3L36.25,5.872L36.25,5.872z M34.25,7.001    c0,0.551-0.449,1-1,1H8.917c-0.551,0-1-0.449-1-1V5.873c0-0.551,0.449-1,1-1h7.167c0.552,0,1-0.448,1-1V3.001c0-0.551,0.449-1,1-1    h6c0.551,0,1,0.449,1,1v0.872c0,0.552,0.448,1,1,1h7.167c0.551,0,1,0.449,1,1L34.25,7.001L34.25,7.001z"
   id="path2"
   style="stroke:none;stroke-opacity:1;fill:#2f3e46;fill-opacity:1" />
		<path
   d="M33.25,11.501H8.917c-1.654,0-3,1.346-3,3v24.667c0,1.654,1.346,3,3,3H33.25c1.653,0,3-1.346,3-3V14.501    C36.25,12.846,34.903,11.501,33.25,11.501z M34.25,39.167c0,0.551-0.449,1-1,1H8.917c-0.551,0-1-0.449-1-1V14.501    c0-0.551,0.449-1,1-1H33.25c0.551,0,1,0.449,1,1V39.167z"
   id="path4"
   style="fill:#2f3e46;fill-opacity:1" />
		<path
   d="M21.084,16.501c-0.552,0-1,0.448-1,1v19c0,0.552,0.448,1,1,1c0.552,0,1-0.448,1-1v-19    C22.084,16.948,21.636,16.501,21.084,16.501z"
   id="path6"
   style="fill:#2f3e46;fill-opacity:1" />
		<path
   d="M17.084,16.501c-0.552,0-1,0.448-1,1v19c0,0.552,0.448,1,1,1c0.552,0,1-0.448,1-1v-19    C18.084,16.948,17.636,16.501,17.084,16.501z"
   id="path8"
   style="fill:#2f3e46;fill-opacity:1" />
		<path
   d="M13.084,16.501c-0.552,0-1,0.448-1,1v19c0,0.552,0.448,1,1,1c0.552,0,1-0.448,1-1v-19    C14.084,16.948,13.636,16.501,13.084,16.501z"
   id="path10"
   style="fill:#2f3e46;fill-opacity:1" />
		<path
   d="M25.084,16.501c-0.552,0-1,0.448-1,1v19c0,0.552,0.448,1,1,1s1-0.448,1-1v-19C26.084,16.948,25.636,16.501,25.084,16.501z    "
   id="path12"
   style="fill:#2f3e46;fill-opacity:1" />
		<path
   d="M29.084,16.501c-0.552,0-1,0.448-1,1v19c0,0.552,0.448,1,1,1s1-0.448,1-1v-19C30.084,16.948,29.636,16.501,29.084,16.501z    "
   id="path14"
   style="fill:#2f3e46;fill-opacity:1" />
	</g>
</g>
<g
   id="g20">
</g>
<g
   id="g22">
</g>
<g
   id="g24">
</g>
<g
   id="g26">
</g>
<g
   id="g28">
</g>
<g
   id="g30">
</g>
<g
   id="g32">
</g>
<g
   id="g34">
</g>
<g
   id="g36">
</g>
<g
   id="g38">
</g>
<g
   id="g40">
</g>
<g
   id="g42">
</g>
<g
   id="g44">
</g>
<g
   id="g46">
</g>
<g
   id="g48">
</g>
</svg>