<?xml version="1.0" encoding="UTF-8" standalone="no"?>
<svg
   xmlns:dc="http://purl.org/dc/elements/1.1/"
   xmlns:cc="http://creativecommons.org/ns#"
   xmlns:rdf="http://www.w3.org/1999/02/22-rdf-syntax-ns#"
   xmlns:svg="http://www.w3.org/2000/svg"
   xmlns="http://www.w3.org/2000/svg"
   xmlns:sodipodi="http://sodipodi.sourceforge.net/DTD/sodipodi-0.dtd"
   xmlns:inkscape="http://www.inkscape.org/namespaces/inkscape"
   inkscape:version="1.0 (6e3e5246a0, 2020-05-07)"
   sodipodi:docname="notification.svg"
   version="1.1"
   width="512"
   viewBox="0 0 512 512"
   height="512"
   enable-background="new 0 0 512 512"
   id="Layer_1">
  <metadata
     id="metadata66">
    <rdf:RDF>
      <cc:Work
         rdf:about="">
        <dc:format>image/svg+xml</dc:format>
        <dc:type
           rdf:resource="http://purl.org/dc/dcmitype/StillImage" />
      </cc:Work>
    </rdf:RDF>
  </metadata>
  <defs
     id="defs64" />
  <sodipodi:namedview
     inkscape:document-rotation="0"
     inkscape:current-layer="Layer_1"
     inkscape:window-maximized="1"
     inkscape:window-y="0"
     inkscape:window-x="0"
     inkscape:cy="256"
     inkscape:cx="142.18666"
     inkscape:zoom="0.921875"
     showgrid="false"
     id="namedview62"
     inkscape:window-height="699"
     inkscape:window-width="1366"
     inkscape:pageshadow="2"
     inkscape:pageopacity="0"
     guidetolerance="10"
     gridtolerance="10"
     objecttolerance="10"
     borderopacity="1"
     bordercolor="#666666"
     pagecolor="#ffffff" />
  <g
     id="g59">
    <g
       id="g21">
      <g
         id="g19">
        <g
           id="XMLID_1258_">
          <g
             id="XMLID_1259_">
            <g
               id="XMLID_1260_">
              <g
                 id="XMLID_1261_">
                <g
                   id="XMLID_1262_">
                  <g
                     id="XMLID_1263_">
                    <g
                       id="XMLID_1264_">
                      <g
                         id="XMLID_1265_">
                        <g
                           id="XMLID_1266_">
                          <g
                             id="XMLID_1287_">
                            <g
                               id="XMLID_1303_">
                              <g
                                 id="XMLID_1319_">
                                <g
                                   id="XMLID_1335_">
                                <g
                                   id="XMLID_1351_">
                                <g
                                   id="XMLID_1368_">
                                <circle
                                   style="fill:#cad2c5;fill-opacity:1"
                                   id="circle2"
                                   r="256"
                                   fill="#ed2f54"
                                   cy="256"
                                   cx="256" />
                                </g>
                                </g>
                                </g>
                              </g>
                            </g>
                          </g>
                        </g>
                      </g>
                    </g>
                  </g>
                </g>
              </g>
            </g>
          </g>
        </g>
      </g>
    </g>
    <path
       style="fill:#b3c1b1;fill-opacity:1"
       id="path23"
       fill="#a5003c"
       d="m511.141 276.968-238.062-238.062-102.746 259.094-95.833 97 105.54 105.54c24 7.447 49.511 11.46 75.96 11.46 134.324 0 244.473-103.457 255.141-235.032z" />
    <g
       id="g57">
      <ellipse
         style="fill:#f5f5f7;fill-opacity:1"
         id="ellipse25"
         transform="matrix(.154 -.988 .988 .154 -174.054 587.439)"
         ry="37.144"
         rx="37.145"
         fill="#fed940"
         cy="395.355"
         cx="256" />
      <g
         id="g31">
        <g
           id="g29">
          <path
             style="fill:#cad2c5;fill-opacity:1"
             id="path27"
             fill="#fdbf2d"
             d="m293.14 395v.36c0 20.51-16.63 37.14-37.14 37.14v-74.29c15.34 0 28.51 9.3 34.17 22.58 1.87 4.37 2.92 9.17 2.97 14.21z" />
        </g>
      </g>
      <g
         id="g37">
        <g
           id="g35">
          <path
             style="fill:#f5f5f7;fill-opacity:1"
             id="path33"
             fill="#fd9827"
             d="m276.926 98.25h-41.852v-47.279c0-11.557 9.369-20.926 20.926-20.926 11.557 0 20.926 9.369 20.926 20.926z" />
        </g>
      </g>
      <g
         id="g43">
        <g
           id="g41">
          <path
             style="fill:#cad2c5;fill-opacity:1"
             id="path39"
             fill="#fd9827"
             d="m276.93 50.97v47.28h-20.93v-68.21c5.78 0 11.01 2.34 14.8 6.13s6.13 9.02 6.13 14.8z" />
        </g>
      </g>
      <path
         style="fill:#354f52;fill-opacity:1"
         id="path45"
         fill="#fed940"
         d="m424.46 380.79h-336.92c27.92-34.05 47.33-87.18 59.03-134.79 6.74-27.42 28.67-29.778 30.43-48.848.69-7.45-16.08-38.042-14.64-45.152 7.89-39.03 29.63-70.67 93.64-70.67s85.75 31.64 93.64 70.67c1.44 7.11-22.33 37.702-21.64 45.152 1.76 19.07 30.69 21.428 37.43 48.848 11.7 47.61 31.11 100.74 59.03 134.79z" />
      <path
         style="fill:#2f3e46;fill-opacity:1"
         id="path47"
         fill="#fdbf2d"
         d="m424.46 380.79h-168.46v-299.46c7.55 0 14.51.44 20.93 1.29 48.02 6.28 65.75 34.95 72.71 69.38 1.44 7.11-22.33 37.7-21.64 45.15 1.76 19.07 30.69 21.43 37.43 48.85 7.63 31.04 18.53 64.42 32.93 93.33 7.69 15.44 16.38 29.6 26.1 41.46z" />
      <path
         id="path49"
         fill="#f5f5f7"
         d="m365.43 246h-218.86c6.74-27.42 10.92-53.01 12.68-72.08.69-7.45 1.67-14.81 3.11-21.92h187.28c1.44 7.11 2.42 14.47 3.11 21.92 1.76 19.07 5.94 44.66 12.68 72.08z" />
      <path
         style="fill:#e8e8e8;fill-opacity:1"
         id="path51"
         fill="#e0e3ee"
         d="m365.43 246h-109.43v-94h93.64c1.44 7.11 2.42 14.47 3.11 21.92 1.76 19.07 5.94 44.66 12.68 72.08z" />
      <path
         style="fill:#354f52;fill-opacity:1"
         id="path53"
         fill="#fdbf2d"
         d="m437.5 395h-363v-21.337c0-18.96 15.37-34.33 34.33-34.33h294.34c18.96 0 34.33 15.37 34.33 34.33z" />
      <path
         style="fill:#2f3e46;fill-opacity:1"
         id="path55"
         fill="#fd9827"
         d="m437.5 373.66v21.34h-181.5v-55.67h147.17c18.96 0 34.33 15.37 34.33 34.33z" />
    </g>
  </g>
</svg>
