<?xml version="1.0" encoding="UTF-8" standalone="no"?>
<svg
   xmlns:dc="http://purl.org/dc/elements/1.1/"
   xmlns:cc="http://creativecommons.org/ns#"
   xmlns:rdf="http://www.w3.org/1999/02/22-rdf-syntax-ns#"
   xmlns:svg="http://www.w3.org/2000/svg"
   xmlns="http://www.w3.org/2000/svg"
   xmlns:sodipodi="http://sodipodi.sourceforge.net/DTD/sodipodi-0.dtd"
   xmlns:inkscape="http://www.inkscape.org/namespaces/inkscape"
   inkscape:version="1.0 (6e3e5246a0, 2020-05-07)"
   sodipodi:docname="save.svg"
   version="1.1"
   width="512"
   viewBox="0 0 24 24"
   height="512"
   enable-background="new 0 0 24 24"
   id="color">
  <metadata
     id="metadata21">
    <rdf:RDF>
      <cc:Work
         rdf:about="">
        <dc:format>image/svg+xml</dc:format>
        <dc:type
           rdf:resource="http://purl.org/dc/dcmitype/StillImage" />
        <dc:title></dc:title>
      </cc:Work>
    </rdf:RDF>
  </metadata>
  <defs
     id="defs19" />
  <sodipodi:namedview
     inkscape:current-layer="color"
     inkscape:window-maximized="1"
     inkscape:window-y="0"
     inkscape:window-x="0"
     inkscape:cy="254.56249"
     inkscape:cx="256"
     inkscape:zoom="0.96679688"
     showgrid="false"
     id="namedview17"
     inkscape:window-height="699"
     inkscape:window-width="1366"
     inkscape:pageshadow="2"
     inkscape:pageopacity="0"
     guidetolerance="10"
     gridtolerance="10"
     objecttolerance="10"
     borderopacity="1"
     bordercolor="#666666"
     pagecolor="#ffffff" />
  <path
     style="fill:#b3c1b1;fill-opacity:1"
     id="path2"
     fill="#00bcd4"
     d="m12 0c-6.617 0-12 5.383-12 12s5.383 12 12 12 12-5.383 12-12-5.383-12-12-12z" />
  <path
     style="fill:#cad2c5;fill-opacity:1"
     id="path8"
     fill="#00a4b9"
     d="m12 0c-6.617 0-12 5.383-12 12s5.383 12 12 12v-5h-5c-.553 0-1-.448-1-1s.447-1 1-1h5v-2c-.192 0-.384-.073-.53-.22l-3.25-3.25c-.472-.47-.139-1.28.53-1.28h2.25v-4.5c0-.552.447-1 1-1z" />
  <path
     id="path846"
     d="M 12,4.7499998 V 15 15 L 11.943818,20.291371 4.0848455,19.554915 4.9189495,7.3434333 10.734593,4.4935946 Z"
     style="fill:#cad2c5;stroke:#000000;stroke-width:0;stroke-linecap:butt;stroke-linejoin:miter;stroke-opacity:1;fill-opacity:1;stroke-miterlimit:4;stroke-dasharray:none" />
  <g
     transform="matrix(0.02912283,0,0,0.02912283,4.5445555,4.089111)"
     id="g18">
    <path
       style="fill:#354f52;fill-opacity:1"
       d="m 512,128 v 339 c 0,24.81 -20.19,45 -45,45 H 392 L 256,466.54 120,512 H 45 C 20.19,512 0,491.81 0,467 V 45 C 0,20.19 20.19,0 45,0 h 75 L 256,55.634 392,2.32 c 0.94,0.58 1.81,1.27 2.61,2.07 l 113,113 c 2.81,2.82 4.39,6.63 4.39,10.61 z"
       fill="#425796"
       id="path2-3" />
    <path
       style="fill:#2f3e46;fill-opacity:1"
       d="m 512,128 v 339 c 0,24.81 -20.19,45 -45,45 H 392 L 256,466.54 V 42.526 L 392,2.32 c 0.94,0.58 1.81,1.27 2.61,2.07 l 113,113 c 2.81,2.82 4.39,6.63 4.39,10.61 z"
       fill="#283758"
       id="path4" />
    <path
       d="m 392,2.32 c 0,135.922 0.059,126.441 -0.13,129.14 -1.73,23.2 -20.76,41.54 -43.9,41.54 H 164.03 C 139.75,173 120,152.81 120,128 V 0 h 264 c 2.86,0 5.63,0.81 8,2.32 z"
       fill="#eef4ff"
       id="path6" />
    <path
       d="M 392,2.32 V 128 c 0,1.16 -0.05,2.32 -0.13,3.46 -1.73,23.2 -20.76,41.54 -43.9,41.54 H 256 V 0 h 128 c 2.86,0 5.63,0.81 8,2.32 z"
       fill="#d9e6fc"
       id="path8-6" />
    <path
       d="M 392,336 V 512 H 120 V 336 c 0,-8.28 6.57,-15 14.68,-15 h 242.64 c 8.11,0 14.68,6.72 14.68,15 z"
       fill="#eef4ff"
       id="path10" />
    <path
       d="M 392,336 V 512 H 256 V 321 h 121.32 c 8.11,0 14.68,6.72 14.68,15 z"
       fill="#d9e6fc"
       id="path12" />
    <path
       style="fill:#cad2c5;fill-opacity:1"
       d="m 392,302 v 49 H 120 v -49 c 0,-24.85 19.71,-45 44.03,-45 h 183.94 c 24.32,0 44.03,20.15 44.03,45 z"
       fill="#ffb454"
       id="path14" />
    <path
       style="fill:#b3c1b1;fill-opacity:1"
       d="m 392,302 v 49 H 256 v -94 h 91.97 c 24.32,0 44.03,20.15 44.03,45 z"
       fill="#ff7d47"
       id="path16" />
  </g>
</svg>
