<?xml version="1.0" encoding="UTF-8" standalone="no"?>
<svg
   xmlns:dc="http://purl.org/dc/elements/1.1/"
   xmlns:cc="http://creativecommons.org/ns#"
   xmlns:rdf="http://www.w3.org/1999/02/22-rdf-syntax-ns#"
   xmlns:svg="http://www.w3.org/2000/svg"
   xmlns="http://www.w3.org/2000/svg"
   xmlns:xlink="http://www.w3.org/1999/xlink"
   xmlns:sodipodi="http://sodipodi.sourceforge.net/DTD/sodipodi-0.dtd"
   xmlns:inkscape="http://www.inkscape.org/namespaces/inkscape"
   inkscape:export-ydpi="9.6834688"
   inkscape:export-xdpi="9.6834688"
   inkscape:export-filename="/home/alonzo6546/Projects/codentake/public/search.png"
   version="1.1"
   id="Layer_1"
   x="0px"
   y="0px"
   viewBox="0 0 473.931 473.931"
   style="enable-background:new 0 0 473.931 473.931;"
   xml:space="preserve"
   sodipodi:docname="search.svg"
   inkscape:version="1.0 (6e3e5246a0, 2020-05-07)"><metadata
   id="metadata53"><rdf:RDF><cc:Work
       rdf:about=""><dc:format>image/svg+xml</dc:format><dc:type
         rdf:resource="http://purl.org/dc/dcmitype/StillImage" /></cc:Work></rdf:RDF></metadata><defs
   id="defs51"><clipPath
     clipPathUnits="userSpaceOnUse"
     id="clipPath889"><use
       height="100%"
       width="100%"
       x="0"
       y="0"
       xlink:href="#g885"
       id="use891" /></clipPath><clipPath
     clipPathUnits="userSpaceOnUse"
     id="clipPath906"><use
       x="0"
       y="0"
       xlink:href="#g902"
       id="use908" /></clipPath></defs><sodipodi:namedview
   inkscape:document-rotation="0"
   pagecolor="#ffffff"
   bordercolor="#666666"
   borderopacity="1"
   objecttolerance="10"
   gridtolerance="10"
   guidetolerance="10"
   inkscape:pageopacity="0"
   inkscape:pageshadow="2"
   inkscape:window-width="1366"
   inkscape:window-height="699"
   id="namedview49"
   showgrid="false"
   inkscape:zoom="1.0444558"
   inkscape:cx="188.22609"
   inkscape:cy="219.66741"
   inkscape:window-x="0"
   inkscape:window-y="0"
   inkscape:window-maximized="1"
   inkscape:current-layer="layer2" />








<g
   id="g18">
</g>
<g
   id="g20">
</g>
<g
   id="g22">
</g>
<g
   id="g24">
</g>
<g
   id="g26">
</g>
<g
   id="g28">
</g>
<g
   id="g30">
</g>
<g
   id="g32">
</g>
<g
   id="g34">
</g>
<g
   id="g36">
</g>
<g
   id="g38">
</g>
<g
   id="g40">
</g>
<g
   id="g42">
</g>
<g
   id="g44">
</g>
<g
   id="g46">
</g>
<g
   inkscape:label="circle"
   id="layer1"
   inkscape:groupmode="layer"><circle
     style="enable-background:new 0 0 473.93099999999998317 473.93099999999998317;fill:#cad2c5;fill-opacity:1"
     cx="236.966"
     cy="236.966"
     r="236.966"
     id="circle2" /></g><g
   inkscape:label="shadow"
   id="layer3"
   inkscape:groupmode="layer"><path
     style="enable-background:new 0 0 473.93099999999998317 473.93099999999998317;fill:#b3c1b1;stroke:#000000;stroke-width:0;stroke-linecap:butt;stroke-linejoin:miter;stroke-opacity:1;fill-opacity:1;stroke-miterlimit:4;stroke-dasharray:none"
     d="m 94.681,379.224 51.95064,75.94413 c 44.61482,20.80129 92.57673,27.01225 145.03711,13.61384 143.50799,-43.36175 177.81734,-143.315 183.49919,-247.36681 L 339.33768,105.04687"
     id="path878"
     sodipodi:nodetypes="ccccc" /></g><g
   inkscape:label="search"
   id="layer2"
   inkscape:groupmode="layer"><g
     id="g885"
     inkscape:label="Clip"><g
       clip-path="url(#clipPath906)"
       id="g904"><g
         id="g902"
         inkscape:label="Clip"><path
           style="fill:#2f3e46;fill-opacity:1"
           d="m 113.895,379.224 c -5.306,5.302 -13.916,5.302 -19.214,0 v 0 c -5.313,-5.313 -5.313,-13.912 0,-19.221 l 99.456,-99.46 c 5.298,-5.291 13.901,-5.291 19.214,0.011 v 0 c 5.306,5.295 5.306,13.893 -0.007,19.21 z"
           id="path4" /><path
           style="fill:#2f3e46;fill-opacity:1"
           d="m 277.627,293.956 c -53.941,0 -97.686,-43.734 -97.686,-97.686 0,-53.956 43.745,-97.682 97.686,-97.682 53.964,0 97.686,43.73 97.686,97.682 0.004,53.953 -43.722,97.686 -97.686,97.686 z"
           id="path8" /><path
           id="path6"
           d="m 127.182,382.868 c -4.647,4.636 -16.501,0.318 -26.477,-9.665 v 0 C 90.714,363.22 86.397,351.362 91.036,346.726 L 196.662,241.089 c 4.647,-4.636 16.501,-0.311 26.484,9.672 v 0 c 9.983,9.964 14.316,21.822 9.661,26.484 z"
           style="fill:#354f52;fill-opacity:1" /><circle
           id="circle10"
           r="76.739998"
           cy="205.685"
           cx="283.401"
           style="fill:#354f52;fill-opacity:1" /><path
           id="path12"
           d="M 191.773,245.504 177.88,259.39 c 0,0 12.688,28.026 39.977,32.329 l 10.077,-10.073 v -13.029 z"
           style="fill:#2f3e46;fill-opacity:1" /><path
           id="path14"
           d="m 200.4071,116.97119 c -41.833,41.822 -41.833,109.637 0,151.451 41.833,41.833 109.63,41.833 151.455,0.011 41.825,-41.825 41.825,-109.641 0,-151.463 -41.825,-41.828995 -109.626,-41.828995 -151.455,0.001 z m 132.365,132.368 c -31.27,31.277 -81.989,31.285 -113.274,0 -31.285,-31.274 -31.285,-82.004 0,-113.274 31.285,-31.285 82.004,-31.285 113.274,-0.007 31.292,31.284 31.277,82.004 0,113.281 z"
           style="fill:#ebedef" /><path
           id="path16"
           d="m 224.629,185.793 c -2.002,4.37 -0.101,9.575 4.269,11.584 4.385,2.043 9.59,0.097 11.599,-4.254 0,0 0.086,-0.202 0.513,-0.969 3.027,-5.545 17.627,-29.088 48.504,-31.962 3.742,-0.367 6.694,-3.027 7.607,-6.466 0.247,-0.969 0.352,-1.998 0.247,-3.072 -0.483,-4.797 -4.737,-8.333 -9.538,-7.85 -45.514,4.685 -62.756,42.106 -63.201,42.989 z"
           style="opacity:0.7;fill:#ffffff;enable-background:new" /></g></g></g></g></svg>
