<?xml version="1.0" encoding="UTF-8" standalone="no"?>
<svg
   xmlns:dc="http://purl.org/dc/elements/1.1/"
   xmlns:cc="http://creativecommons.org/ns#"
   xmlns:rdf="http://www.w3.org/1999/02/22-rdf-syntax-ns#"
   xmlns:svg="http://www.w3.org/2000/svg"
   xmlns="http://www.w3.org/2000/svg"
   xmlns:sodipodi="http://sodipodi.sourceforge.net/DTD/sodipodi-0.dtd"
   xmlns:inkscape="http://www.inkscape.org/namespaces/inkscape"
   id="Capa_1"
   enable-background="new 0 0 512 512"
   height="512"
   viewBox="0 0 512 512"
   width="512"
   version="1.1"
   sodipodi:docname="user.svg"
   inkscape:version="0.92.5 (2060ec1f9f, 2020-04-08)">
  <metadata
     id="metadata21">
    <rdf:RDF>
      <cc:Work
         rdf:about="">
        <dc:format>image/svg+xml</dc:format>
        <dc:type
           rdf:resource="http://purl.org/dc/dcmitype/StillImage" />
      </cc:Work>
    </rdf:RDF>
  </metadata>
  <defs
     id="defs19" />
  <sodipodi:namedview
     pagecolor="#ffffff"
     bordercolor="#666666"
     borderopacity="1"
     objecttolerance="10"
     gridtolerance="10"
     guidetolerance="10"
     inkscape:pageopacity="0"
     inkscape:pageshadow="2"
     inkscape:window-width="1366"
     inkscape:window-height="699"
     id="namedview17"
     showgrid="false"
     inkscape:zoom="0.4609375"
     inkscape:cx="-163.79661"
     inkscape:cy="256"
     inkscape:window-x="0"
     inkscape:window-y="0"
     inkscape:window-maximized="1"
     inkscape:current-layer="Capa_1" />
  <g
     id="g14">
    <path
       d="m256 0-160.398 256 160.398 256c141.385 0 256-114.615 256-256s-114.615-256-256-256z"
       fill="#28abfa"
       id="path2"
       style="fill:#b3c1b1;fill-opacity:1" />
    <path
       d="m0 256c0 141.385 114.615 256 256 256v-512c-141.385 0-256 114.615-256 256z"
       fill="#14cfff"
       id="path4"
       style="fill:#cad2c5;fill-opacity:1" />
    <path
       d="m256 60-65.788 105 65.788 105c57.99 0 105-47.01 105-105s-47.01-105-105-105z"
       fill="#373e9f"
       id="path6"
       style="fill:#2f3e46;fill-opacity:1" />
    <path
       d="m151 165c0 57.99 47.01 105 105 105v-210c-57.99 0-105 47.01-105 105z"
       fill="#6241ea"
       id="path8"
       style="fill:#354f52;fill-opacity:1" />
    <path
       d="m424.649 335.443c-19.933-22.525-48.6-35.443-78.649-35.443h-90l-60 76 60 76c70.322 0 135.636-38.01 170.454-99.198l5.306-9.325z"
       fill="#373e9f"
       id="path10"
       style="fill:#2f3e46;fill-opacity:1" />
    <path
       d="m166 300c-30.049 0-58.716 12.918-78.649 35.443l-7.11 8.035 5.306 9.325c34.817 61.187 100.131 99.197 170.453 99.197v-152z"
       fill="#6241ea"
       id="path12"
       style="fill:#354f52;fill-opacity:1" />
  </g>
</svg>
