<svg id="Layer_5" enable-background="new 0 0 64 64" height="512" viewBox="0 0 64 64" width="512" xmlns="http://www.w3.org/2000/svg" xmlns:xlink="http://www.w3.org/1999/xlink"><linearGradient id="SVGID_1_" gradientUnits="userSpaceOnUse" x1="32" x2="32" y1="63" y2="1"><stop offset="0" stop-color="#9f2fff"/><stop offset="1" stop-color="#0bb1d3"/></linearGradient><path d="m16 17h-2v-10h2.693l2.307 6.152v-6.152h2v10h-2.693l-2.307-6.152zm13-2h-4v-2h4v-2h-4v-2h4v-2h-6v10h6zm4.648 2c1.258 0 2.35-.896 2.597-2.129l.255-1.271.254 1.271c.247 1.233 1.34 2.129 2.598 2.129 1.46 0 2.648-1.188 2.648-2.648v-7.352h-2v7.352c0 .357-.291.648-.648.648-.308 0-.576-.22-.636-.521l-.896-4.479h-2.64l-.896 4.479c-.06.301-.327.521-.636.521-.357 0-.648-.291-.648-.648v-7.352h-2v7.352c0 1.46 1.188 2.648 2.648 2.648zm16.352-3c0-1.654-1.346-3-3-3-.551 0-1-.448-1-1s.449-1 1-1h1v1h2v-3h-3c-1.654 0-3 1.346-3 3s1.346 3 3 3c.551 0 1 .448 1 1s-.449 1-1 1h-1v-1h-2v3h3c1.654 0 3-1.346 3-3zm-42 45v-54c0-2.206 1.794-4 4-4h44v56h-4v6h-40c-2.206 0-4-1.794-4-4zm46-4v-32h-44v32.556c.591-.344 1.268-.556 2-.556h35 5zm-44-50v16h44v-18h-42c-1.103 0-2 .897-2 2zm0 54c0 1.103.897 2 2 2h38v-4h-3-35c-1.103 0-2 .897-2 2zm20-15c0 4.963-4.038 9-9 9s-9-4.037-9-9 4.038-9 9-9 9 4.037 9 9zm-14.339-4.516 5.339 3.336 5.339-3.336c-1.285-1.517-3.2-2.484-5.339-2.484s-4.054.967-5.339 2.484zm4.339 11.436v-6.366l-5.401-3.376c-.382.864-.599 1.818-.599 2.822 0 3.519 2.613 6.432 6 6.92zm8-6.92c0-1.004-.217-1.958-.599-2.822l-5.401 3.377v6.366c3.387-.489 6-3.402 6-6.921zm24-16c0 1.654-1.346 3-3 3-.807 0-1.537-.324-2.077-.844l-6.96 3.48c.015.121.037.24.037.364 0 1.654-1.346 3-3 3s-3-1.346-3-3c0-.125.022-.243.037-.364l-6.96-3.48c-.54.52-1.27.844-2.077.844-.895 0-1.691-.402-2.241-1.026l-4.771 1.909c.002.039.012.077.012.117 0 1.654-1.346 3-3 3s-3-1.346-3-3 1.346-3 3-3c.895 0 1.691.402 2.241 1.026l4.771-1.909c-.002-.039-.012-.077-.012-.117 0-1.654 1.346-3 3-3s3 1.346 3 3c0 .124-.022.243-.037.363l6.96 3.48c.54-.519 1.27-.843 2.077-.843s1.537.324 2.077.844l6.96-3.48c-.015-.121-.037-.24-.037-.364 0-1.654 1.346-3 3-3s3 1.346 3 3zm-36 4c0-.552-.449-1-1-1s-1 .448-1 1 .449 1 1 1 1-.448 1-1zm10-4c0-.552-.449-1-1-1s-1 .448-1 1 .449 1 1 1 1-.448 1-1zm12 6c0-.552-.449-1-1-1s-1 .448-1 1 .449 1 1 1 1-.448 1-1zm12-6c0-.552-.449-1-1-1s-1 .448-1 1 .449 1 1 1 1-.448 1-1zm-18 11v2h2v-2zm4 2h16v-2h-16zm-4 4h20v-2h-20zm0 2v2h4v-2zm6 2h14v-2h-14zm-6 4h20v-2h-20z" fill="url(#SVGID_1_)"/></svg>