<?xml version="1.0" encoding="UTF-8" standalone="no"?>
<!-- Created with Inkscape (http://www.inkscape.org/) -->

<svg
   xmlns:dc="http://purl.org/dc/elements/1.1/"
   xmlns:cc="http://creativecommons.org/ns#"
   xmlns:rdf="http://www.w3.org/1999/02/22-rdf-syntax-ns#"
   xmlns:svg="http://www.w3.org/2000/svg"
   xmlns="http://www.w3.org/2000/svg"
   xmlns:sodipodi="http://sodipodi.sourceforge.net/DTD/sodipodi-0.dtd"
   xmlns:inkscape="http://www.inkscape.org/namespaces/inkscape"
   width="210mm"
   height="297mm"
   viewBox="0 0 210 297"
   version="1.1"
   id="svg8"
   inkscape:version="0.92.5 (2060ec1f9f, 2020-04-08)"
   sodipodi:docname="takes.svg">
  <defs
     id="defs2" />
  <sodipodi:namedview
     id="base"
     pagecolor="#ffffff"
     bordercolor="#666666"
     borderopacity="1.0"
     inkscape:pageopacity="0.0"
     inkscape:pageshadow="2"
     inkscape:zoom="0.32000352"
     inkscape:cx="529.93846"
     inkscape:cy="443.61691"
     inkscape:document-units="mm"
     inkscape:current-layer="layer4"
     showgrid="true"
     showguides="true"
     inkscape:window-width="1366"
     inkscape:window-height="699"
     inkscape:window-x="0"
     inkscape:window-y="0"
     inkscape:window-maximized="1">
    <inkscape:grid
       type="xygrid"
       id="grid3721" />
  </sodipodi:namedview>
  <metadata
     id="metadata5">
    <rdf:RDF>
      <cc:Work
         rdf:about="">
        <dc:format>image/svg+xml</dc:format>
        <dc:type
           rdf:resource="http://purl.org/dc/dcmitype/StillImage" />
        <dc:title></dc:title>
      </cc:Work>
    </rdf:RDF>
  </metadata>
  <g
     inkscape:label="Project1 div"
     inkscape:groupmode="layer"
     id="layer1">
    <rect
       id="rect3821"
       width="109.06916"
       height="128.15756"
       x="3.3674245"
       y="23.15625"
       style="fill:none;fill-opacity:1;stroke:#000000;stroke-width:4.26444721;stroke-miterlimit:4;stroke-dasharray:none;stroke-opacity:1" />
    <rect
       id="rect3821-2"
       width="109.06916"
       height="128.15756"
       x="180.13469"
       y="269.21875"
       style="fill:none;stroke:#000000;stroke-width:4.26444721;stroke-miterlimit:4;stroke-dasharray:none;stroke-opacity:1" />
    <path
       style="fill:#483e37;fill-opacity:1;fill-rule:evenodd;stroke-width:0.26693135"
       d="m 206.46174,301.75963 h 43.25156 v 7.57801 h -43.25156 z"
       id="rect4639-7"
       inkscape:connector-curvature="0"
       sodipodi:nodetypes="ccccc" />
    <path
       style="fill:#483e37;fill-opacity:1;fill-rule:evenodd;stroke-width:0.26693135"
       inkscape:transform-center-x="-3.8197287"
       inkscape:transform-center-y="-15.392658"
       d="m 206.46174,316.91568 c 14.41719,0 28.83437,0 43.25156,0 0,2.52599 0,5.05201 0,7.57801 -14.41719,0 -28.83437,0 -43.25156,0 0,-2.526 0,-5.05202 0,-7.57801 z"
       id="rect4639-5-0"
       inkscape:connector-curvature="0"
       sodipodi:nodetypes="ccccc" />
    <path
       style="fill:#483e37;fill-opacity:1;fill-rule:evenodd;stroke-width:0.19280857"
       inkscape:transform-center-x="-1.9929003"
       inkscape:transform-center-y="-15.392684"
       d="m 206.46174,335.86069 c 7.52202,0 15.04402,0 22.56603,0 0,2.52598 0,5.052 0,7.578 -7.52201,0 -15.04401,0 -22.56603,0 0,-2.526 0,-5.05202 0,-7.578 z"
       id="rect4639-5-6-9"
       inkscape:connector-curvature="0"
       sodipodi:nodetypes="ccccc" />
    <path
       style="fill:#483e37;fill-opacity:1;fill-rule:evenodd;stroke-width:0.16697712"
       inkscape:transform-center-x="-1.4946793"
       inkscape:transform-center-y="-15.392671"
       d="m 206.46174,369.96177 c 5.64151,0 11.28302,0 16.92453,0 0,2.526 0,5.05202 0,7.578 -5.64151,0 -11.28302,0 -16.92453,0 0,-2.52598 0,-5.052 0,-7.578 z"
       id="rect4639-5-6-2-3"
       inkscape:connector-curvature="0"
       sodipodi:nodetypes="ccccc" />
    <path
       style="fill:#483e37;fill-opacity:1;fill-rule:evenodd;stroke-width:0.26106405"
       inkscape:transform-center-x="-3.6536524"
       inkscape:transform-center-y="-15.39268"
       d="m 206.46174,351.01672 c 13.79036,0 27.5807,0 41.37105,0 0,2.526 0,5.05202 0,7.57801 -13.79035,0 -27.58069,0 -41.37105,0 0,-2.52599 0,-5.05201 0,-7.57801 z"
       id="rect4639-5-6-2-9-6"
       inkscape:connector-curvature="0"
       sodipodi:nodetypes="ccccc" />
    <path
       style="fill:#000000;fill-opacity:1;fill-rule:evenodd;stroke-width:0.16697712"
       inkscape:transform-center-x="-1.4946681"
       inkscape:transform-center-y="-15.392665"
       d="m 221.50576,381.32875 c 5.64151,0 11.28301,0 16.92452,0 0,2.52602 0,5.05202 0,7.57804 -5.64151,0 -11.28301,0 -16.92452,0 0,-2.52602 0,-5.05202 0,-7.57804 z"
       id="rect4639-5-6-2-1-0"
       inkscape:connector-curvature="0"
       sodipodi:nodetypes="ccccc" />
  </g>
  <g
     inkscape:groupmode="layer"
     id="layer2"
     inkscape:label="Project1 components">
    <rect
       style="fill:#483e37;fill-opacity:1;fill-rule:evenodd;stroke-width:0.43909052"
       id="rect4639"
       width="86.503128"
       height="10.252604"
       x="10.889436"
       y="28.282551" />
    <rect
       style="fill:#483e37;fill-opacity:1;fill-rule:evenodd;stroke-width:0.43909052"
       id="rect4639-5"
       width="86.503136"
       height="10.252604"
       x="10.889437"
       y="48.787762"
       inkscape:transform-center-x="-7.6394601"
       inkscape:transform-center-y="-20.825374" />
    <rect
       style="fill:#483e37;fill-opacity:1;fill-rule:evenodd;stroke-width:0.31716171"
       id="rect4639-5-6"
       width="45.132069"
       height="10.252604"
       x="10.889437"
       y="74.419273"
       inkscape:transform-center-x="-3.9858042"
       inkscape:transform-center-y="-20.825379" />
    <rect
       style="fill:#483e37;fill-opacity:1;fill-rule:evenodd;stroke-width:0.27467012"
       id="rect4639-5-6-2"
       width="33.849052"
       height="10.252604"
       x="10.889436"
       y="120.556"
       inkscape:transform-center-x="-2.9893542"
       inkscape:transform-center-y="-20.825371" />
    <rect
       style="fill:#483e37;fill-opacity:1;fill-rule:evenodd;stroke-width:0.42943904"
       id="rect4639-5-6-2-9"
       width="82.742126"
       height="10.252604"
       x="10.889436"
       y="94.924477"
       inkscape:transform-center-x="-7.3073081"
       inkscape:transform-center-y="-20.825381" />
    <rect
       style="fill:#000000;fill-opacity:1;fill-rule:evenodd;stroke-width:0.27467012"
       id="rect4639-5-6-2-1"
       width="33.849052"
       height="10.252604"
       x="40.977482"
       y="135.93489"
       inkscape:transform-center-x="-2.9893543"
       inkscape:transform-center-y="-20.825371" />
  </g>
  <g
     inkscape:groupmode="layer"
     id="layer3"
     inkscape:label="Arrow">
    <path
       style="fill:#483e37;fill-opacity:1;stroke:#000000;stroke-width:0.32428986px;stroke-linecap:butt;stroke-linejoin:miter;stroke-opacity:1"
       d="m 101.15357,179.50846 32.82332,46.13673 -10.9411,11.53418 38.29388,26.91308 -13.67638,-61.51562 -8.20584,15.37891 -30.08805,-46.13673 z"
       id="path4718"
       inkscape:connector-curvature="0" />
  </g>
  <g
     inkscape:groupmode="layer"
     id="layer4"
     inkscape:label="Project2 div">
    <path
       style="fill:none;stroke:#000000;stroke-width:4.26444721;stroke-linecap:butt;stroke-linejoin:miter;stroke-miterlimit:4;stroke-dasharray:none;stroke-opacity:1"
       d="m 202.70072,278.67038 c 17.92382,-13.0824 39.75389,-13.44579 63.93711,0.80098 v 14.09732 14.09733 14.09732 14.09736 14.09732 14.09733 14.09732 V 392.25 H 202.70072 V 335.05971 320.87377 306.64868 292.5318 Z"
       id="path4740"
       inkscape:connector-curvature="0"
       sodipodi:nodetypes="ccscccccccccsssc" />
    <path
       style="fill:#483e37;fill-opacity:1;stroke:#000000;stroke-width:0.43909052px;stroke-linecap:butt;stroke-linejoin:miter;stroke-opacity:1"
       d="m 202.70072,294.85026 v -15.3789 c 23.50813,-17.37809 43.81835,-9.44676 63.93711,0 v 15.3789 z"
       id="path4742"
       inkscape:connector-curvature="0"
       sodipodi:nodetypes="ccccc" />
  </g>
</svg>
